<?xml version="1.0" encoding="utf-8"?>
<!-- Generator: Adobe Illustrator 26.0.3, SVG Export Plug-In . SVG Version: 6.00 Build 0)  -->
<svg version="1.1" id="Layer_1" xmlns="http://www.w3.org/2000/svg" xmlns:xlink="http://www.w3.org/1999/xlink" x="0px" y="0px"
	 viewBox="0 0 450 309.6" style="enable-background:new 0 0 450 309.6;" xml:space="preserve">
<style type="text/css">
	.st0{fill:#147451;}
	.st1{stroke:#000000;stroke-width:0.8;stroke-linejoin:round;}
	.st2{fill:none;stroke:#000000;stroke-width:0.8;stroke-linecap:square;}
</style>
<path class="st0" d="M-1217.2-273.1h72.9V-789h-72.9V-273.1z"/>
<path class="st0" d="M-1071.4-273.1h72.9v-363.2h-72.9V-273.1z"/>
<path class="st0" d="M-925.6-273.1h72.9v-325h-72.9V-273.1z"/>
<path class="st0" d="M-779.8-273.1h72.9v-307.7h-72.9V-273.1z"/>
<path class="st0" d="M-634-273.1h72.9v-297.3H-634V-273.1z"/>
<path id="mf44524e4ee" class="st1" d="M-1180.7-273.1v4.4"/>
<path id="mf44524e4ee_00000063597210782136257440000013514185070059766204_" class="st1" d="M-1034.9-273.1v4.4"/>
<path id="mf44524e4ee_00000093865103167976155520000003823386257049035452_" class="st1" d="M-889.1-273.1v4.4"/>
<path id="mf44524e4ee_00000155862686015516155320000000385096553174527132_" class="st1" d="M-743.3-273.1v4.4"/>
<path id="mf44524e4ee_00000096035236161027057500000013379350252460258231_" class="st1" d="M-597.5-273.1v4.4"/>
<path class="st2" d="M-1253.7-273.1v-467.4"/>
<path class="st2" d="M-1253.7-273.1h692.2"/>
<rect x="-1190.7" y="-263.7" style="fill:none;" width="30.6" height="15.8"/>
<text transform="matrix(1.049 0 0 1 -1190.6825 -254.4309)" style="font-family:'ArialMT'; font-size:12.9935px;">Tax</text>
<rect x="-1072.9" y="-263.7" style="fill:none;" width="85" height="15.8"/>
<text transform="matrix(1.049 0 0 1 -1072.8768 -254.4309)" style="font-family:'ArialMT'; font-size:12.9935px;">Property Tax</text>
<rect x="-928" y="-262.3" style="fill:none;" width="81.7" height="15.8"/>
<text transform="matrix(1.049 0 0 1 -927.9545 -253.0286)" style="font-family:'ArialMT'; font-size:12.9935px;">Environment</text>
<rect x="-779.8" y="-262.2" style="fill:none;" width="89.8" height="15.8"/>
<text transform="matrix(1.049 0 0 1 -779.7728 -252.886)" style="font-family:'ArialMT'; font-size:12.9935px;">Public Health</text>
<rect x="-623.7" y="-262.3" style="fill:none;" width="62.7" height="15.8"/>
<text transform="matrix(1.049 0 0 1 -623.7308 -253.0286)" style="font-family:'ArialMT'; font-size:12.9935px;">Education</text>
<rect x="-1265.9" y="-277.9" style="fill:none;" width="8.5" height="15.8"/>
<text transform="matrix(1.049 0 0 1 -1265.868 -268.6477)" style="font-family:'ArialMT'; font-size:12.9935px;">0</text>
<rect x="-1280.9" y="-393.4" style="fill:none;" width="23.7" height="15.8"/>
<text transform="matrix(1.049 0 0 1 -1280.8632 -384.0725)" style="font-family:'ArialMT'; font-size:12.9935px;">100</text>
<rect x="-1280.9" y="-508.9" style="fill:none;" width="23.5" height="15.8"/>
<text transform="matrix(1.049 0 0 1 -1280.8632 -499.5559)" style="font-family:'ArialMT'; font-size:12.9935px;">200</text>
<rect x="-1280.7" y="-624.7" style="fill:none;" width="23.4" height="15.8"/>
<text transform="matrix(1.049 0 0 1 -1280.7059 -615.3499)" style="font-family:'ArialMT'; font-size:12.9935px;">300</text>
<rect x="-1281.1" y="-740.5" style="fill:none;" width="24" height="15.8"/>
<text transform="matrix(1.049 0 0 1 -1281.058 -731.2087)" style="font-family:'ArialMT'; font-size:12.9935px;">400</text>
<rect x="-1245.9" y="-822.3" style="fill:none;" width="650.3" height="23.9"/>
<text transform="matrix(1 0 0 1 -1245.9271 -810.0838)" style="font-family:'ArialMT'; font-size:17px;">Top five law categories with laws passed by the New York Senate between 2009-2022</text>
<rect x="-775.7" y="-225.7" style="fill:none;" width="222.9" height="16.1"/>
<text transform="matrix(1 0 0 1 -775.7148 -217.0848)" style="font-family:'ArialMT'; font-size:12px;">Source: New York State Senate’s website</text>
</svg>
